# xmcd
#
# Track frame offsets:
# 150
# 9820
# 27872
# 44647
# 59267
# 69440
# 84210
# 99504
# 115332
# 132850
#
# Disc length: 1946 seconds
#
#
# Revision: 0
# Processed by: cddbd v1.5.1PL2 Copyright (c) Steve Scherf et al.
# Submitted via: FreeRIP 2.30 
#
DISCID=7607980a
DTITLE=Rebel Hearts - Runnin Free
DYEAR=1997
DGENRE=Country
TTITLE0=When Will I Be Loved
TTITLE1=Everything To Me
TTITLE2=Wrangler Walk
TTITLE3=He Rocks My World
TTITLE4=Broke The Mold
TTITLE5=Sixty Years Ago
TTITLE6=Hard Rock Hotel
TTITLE7=Daddy's Dreams
TTITLE8=Jesse Dunn
TTITLE9=Born Again Bachelor
EXTD=
EXTT0=
EXTT1=
EXTT2=
EXTT3=
EXTT4=
EXTT5=
EXTT6=
EXTT7=
EXTT8=
EXTT9=
PLAYORDER=
